<?xml version="1.0" encoding="utf-8"?>
<!-- Generator: Adobe Illustrator 25.0.0, SVG Export Plug-In . SVG Version: 6.00 Build 0)  -->
<svg version="1.1" id="Layer_1" xmlns="http://www.w3.org/2000/svg" xmlns:xlink="http://www.w3.org/1999/xlink" x="0px" y="0px"
	 viewBox="0 0 2000 2000" style="enable-background:new 0 0 2000 2000;" xml:space="preserve">
<style type="text/css">
	.st0{display:none;fill:#03036D;}
	.st1{display:none;fill:#F1F1F1;}
	.st2{fill:#FFFFFF;}
</style>
<rect class="st1" width="1500" height="100"/>
<g>
	<g>
		<path d="M564.62,1198.06c-0.83-1.6-1.82-3.09-2.98-4.48c-1.16-1.33-2.49-2.43-3.98-3.2c1.44-0.88,2.71-1.99,3.92-3.31
			c1.16-1.33,2.15-2.82,2.98-4.48c0.83-1.6,1.49-3.31,1.93-5.03c0.44-1.77,0.72-3.48,0.72-5.14c0-3.76-0.72-7.24-2.15-10.5
			c-1.44-3.26-3.37-6.08-5.8-8.51c-2.43-2.49-5.3-4.42-8.56-5.8c-3.2-1.44-6.74-2.15-10.44-2.15h-44.92v89.83h44.92
			c3.7,0,7.24-0.72,10.44-2.15c3.26-1.44,6.13-3.37,8.56-5.8c2.43-2.43,4.36-5.3,5.8-8.51c1.44-3.26,2.15-6.74,2.15-10.5
			c0-1.66-0.22-3.37-0.66-5.14C566.12,1201.43,565.45,1199.72,564.62,1198.06z M548.55,1211.87c-0.5,1.05-1.11,2.04-1.93,2.82
			c-0.77,0.83-1.77,1.49-2.82,1.93c-1.1,0.44-2.27,0.66-3.54,0.66h-26.91v-17.9h26.91c1.27,0,2.43,0.22,3.54,0.72
			c1.05,0.44,2.04,1.05,2.82,1.88c0.83,0.83,1.44,1.77,1.93,2.87c0.44,1.05,0.66,2.26,0.66,3.48
			C549.21,1209.61,548.99,1210.77,548.55,1211.87z M548.55,1175.96c-0.5,1.1-1.11,2.04-1.93,2.87c-0.77,0.83-1.77,1.44-2.82,1.88
			c-1.1,0.5-2.27,0.72-3.54,0.72h-26.91v-17.96h26.91c1.27,0,2.43,0.22,3.54,0.66c1.05,0.44,2.04,1.11,2.82,1.93
			c0.83,0.77,1.44,1.71,1.93,2.82c0.44,1.1,0.66,2.27,0.66,3.54C549.21,1173.64,548.99,1174.86,548.55,1175.96z"/>
		<path d="M756.5,1171.93c-0.88-3.09-2.1-5.91-3.65-8.62c-1.55-2.65-3.43-5.08-5.64-7.29c-2.21-2.15-4.59-4.03-7.24-5.63
			c-2.65-1.55-5.52-2.76-8.56-3.65c-3.04-0.83-6.24-1.27-9.5-1.27h-35.97v89.83h17.96v-18.01l20.11-0.11l7.85,18.12h19.12l-10-23.48
			c2.6-1.66,4.92-3.59,7.02-5.8c2.1-2.21,3.87-4.64,5.3-7.24c1.44-2.65,2.54-5.41,3.32-8.34c0.77-2.93,1.16-5.91,1.16-9.01
			C757.77,1178.12,757.33,1174.97,756.5,1171.93z M738.38,1188.39c-0.94,2.21-2.21,4.09-3.81,5.75c-1.66,1.6-3.54,2.93-5.75,3.87
			c-2.15,0.94-4.48,1.38-6.91,1.38H703.9v-35.91h18.01c2.43,0,4.75,0.44,6.91,1.38c2.21,0.94,4.09,2.21,5.75,3.87
			c1.6,1.6,2.87,3.54,3.81,5.69c0.94,2.21,1.44,4.53,1.44,7.02C739.81,1183.86,739.32,1186.24,738.38,1188.39z"/>
		<path d="M936.27,1163.48v-18.01h-61.55v89.83h61.55v-18.01h-43.59v-17.9h29.5v-17.96h-29.5v-17.96H936.27z"/>
		<path d="M1122.01,1167.45c-1.88-4.36-4.42-8.18-7.68-11.44c-3.26-3.26-7.07-5.86-11.44-7.73c-4.36-1.88-9.01-2.82-13.98-2.82
			c-4.97,0-9.67,0.94-14.03,2.82c-4.36,1.88-8.18,4.48-11.38,7.73c-3.26,3.26-5.8,7.07-7.68,11.44c-1.88,4.31-2.82,9.01-2.82,13.98
			v53.87h17.9v-18.01h35.97v18.01h17.96v-53.87C1124.83,1176.46,1123.89,1171.76,1122.01,1167.45z M1106.88,1199.39h-35.97v-17.96
			c0-2.49,0.5-4.81,1.44-7.02c0.94-2.15,2.21-4.09,3.81-5.69c1.66-1.66,3.59-2.93,5.75-3.87c2.21-0.94,4.53-1.38,7.02-1.38
			c2.43,0,4.75,0.44,6.96,1.38c2.21,0.94,4.09,2.21,5.75,3.87c1.6,1.6,2.87,3.54,3.81,5.69c0.94,2.21,1.44,4.53,1.44,7.02V1199.39z"
			/>
		<path d="M1298.47,1216.96c-3.59,1.55-7.35,2.27-11.27,2.27c-3.98,0-7.73-0.72-11.16-2.21c-3.48-1.55-6.52-3.59-9.12-6.13
			c-2.54-2.6-4.59-5.63-6.13-9.06c-1.49-3.48-2.21-7.13-2.21-11.05c0-3.92,0.72-7.62,2.21-11.1c1.55-3.54,3.59-6.52,6.13-9.12
			c2.6-2.54,5.64-4.59,9.12-6.08c3.42-1.55,7.18-2.26,11.16-2.26c3.92,0,7.68,0.77,11.27,2.26c3.59,1.55,6.68,3.7,9.28,6.57
			l9.56-15.69c-4.2-3.59-8.9-6.35-14.03-8.29c-5.19-1.88-10.55-2.82-16.08-2.82c-4.31,0-8.4,0.55-12.32,1.66
			c-3.98,1.1-7.68,2.65-11.1,4.7c-3.43,1.99-6.57,4.42-9.39,7.29c-2.87,2.82-5.3,5.97-7.29,9.39c-2.04,3.48-3.59,7.18-4.7,11.1
			c-1.1,3.98-1.71,8.12-1.71,12.38s0.61,8.34,1.71,12.26c1.1,3.98,2.65,7.68,4.7,11.1c1.99,3.43,4.42,6.57,7.29,9.45
			c2.82,2.82,5.97,5.25,9.39,7.29c3.43,1.99,7.13,3.59,11.1,4.7c3.92,1.1,8.01,1.66,12.32,1.66c5.52,0,10.88-0.99,16.08-2.87
			c5.14-1.93,9.83-4.7,14.03-8.29l-9.56-15.63C1305.16,1213.25,1302.07,1215.41,1298.47,1216.96z"/>
		<path d="M1486.7,1145.47v35.97h-35.86v-35.97h-18.01v89.83h18.01v-35.91h35.86v35.91h17.96v-89.83H1486.7z"/>
	</g>
	<g>
		<path d="M1141.99,1009.77c2.43,0,4.82-0.18,7.1-0.54c12.25-1.92,20.69-8.52,23.35-13.83c3.08-6.16,4.03-12.59,2.89-19.59
			c-10.41,0.8-21.01,2.91-31.31,4.96c-5.69,1.13-11.06,2.2-16.51,3.09c-5.86,0.95-11.24,1.42-16.45,1.42
			c-7.93,0-15.33-1.08-22.56-3.34c0.62,0.73,1.24,1.43,1.86,2.12C1111.21,1005.3,1129.94,1009.77,1141.99,1009.77z"/>
		<path d="M856.36,980.83l-0.09-0.02c-9.83-1.95-19.96-3.96-29.95-4.86c-1.11,6.94-0.14,13.33,2.91,19.44
			c2.66,5.31,11.1,11.91,23.35,13.83c2.28,0.36,4.67,0.54,7.1,0.54c12.05,0,30.79-4.47,51.68-25.76c0.56-0.62,1.12-1.26,1.68-1.91
			c-7.3,2.19-14.9,3.27-22.95,3.27c-5.58,0-11.32-0.49-17.55-1.51C867.23,982.99,861.95,981.94,856.36,980.83z"/>
		<path d="M680.32,1059.89c0.79,0.31,1.69,0.63,2.68,0.94C682.01,1060.53,681.1,1060.21,680.32,1059.89z"/>
		<path d="M695.23,1062.68c-0.43,0-0.83-0.02-1.25-0.03C694.39,1062.66,694.79,1062.68,695.23,1062.68
			C695.22,1062.68,695.22,1062.68,695.23,1062.68z"/>
		<path d="M778.07,987.87c-8.55,7.25-13.17,16.52-18.42,27.07c-3.95,7.93-8.04,16.13-14.13,23.61
			c-19.31,23.7-38.01,28.68-50.29,28.68c-7.24,0-13.02-1.69-16.59-3.1c-16.38-6.49-27.49-22.21-26.41-37.38
			c1.18-15.34,6.91-26.29,17.02-32.56c5.23-3.24,11.5-5.12,18.68-5.59c-6.68-2.67-12.89-3.98-18.8-3.98c-0.29,0-0.58,0-0.87,0.01
			c-12.32,0.23-21.17,7.29-26.42,13.17c-9.85,11.02-15.36,27.13-14.06,41.05c1.7,18.32,11.53,33.67,27.69,43.21
			c10.69,6.32,23.95,9.8,37.33,9.8c10.36,0,20.57-2.07,29.54-5.98c14.99-6.51,27.81-18.15,40.22-29.4
			c9.75-8.85,19.8-17.96,31.22-24.98C783.75,1019.2,778.4,1004.34,778.07,987.87z"/>
		<path d="M691.14,993.03c0.4,0,0.81,0,1.21,0c-0.22,0-0.44-0.01-0.66-0.01C691.5,993.02,691.32,993.03,691.14,993.03z"/>
		<path d="M1144.52,803.77c0.91-0.4,1.83-0.73,2.75-1.04C1146.35,803.03,1145.43,803.37,1144.52,803.77z"/>
		<path d="M1161.9,822.72c0.24,0,0.47-0.01,0.7,0c-0.15,0-0.29-0.02-0.44-0.02C1162.08,822.71,1161.99,822.72,1161.9,822.72z"/>
		<path d="M1202.29,1115.47c-18.78-16.41-45.58-25.3-64.09-30.61c-17.4-4.97-33.7-11.99-48.51-20.99l-0.17-0.11
			c-0.28-0.17-0.5-0.28-0.77-0.44c-0.39-0.22-0.83-0.5-1.22-0.72c-7.73-4.86-14.92-10.11-21.33-15.58c-0.28-0.17-0.5-0.33-0.66-0.5
			c-25.14-21.66-35.63-44.09-40.05-59.06c-0.94-3.2,0.88-6.63,4.14-7.57c0.55-0.17,1.1-0.22,1.71-0.22c2.65,0,5.03,1.77,5.8,4.36
			c3.92,13.31,13.31,33.31,35.86,52.87c0.22,0.17,0.44,0.33,0.66,0.5c10.28,8.84,18.56,15.52,32.21,15.97
			c20.61,0.61,41.21-2.04,60.77-8.56c10.83-3.65,19.89-8.9,26.91-15.69c0,0,0.17-0.11,0.22-0.17c0.06-0.05,0.17-0.17,0.22-0.22
			c0.11-0.06,0.17-0.17,0.22-0.22c32.93-32.82,11.55-83.81-7.18-103.81c-8.29-8.78-16.02-14.36-23.54-19.72
			c-11.6-8.29-22.54-16.13-31.05-33.53c-9.78-21.33-1.44-35.14,4.42-41.49c8.07-8.67,18.34-11.82,25.3-11.82
			c2.38,0,4.59,0.39,6.74,1.16c7.24,3.15,12.32,8.18,15.03,15.08c4.86,12.26,0.72,26.46-1.33,32.04c5.36-2.15,8.78-6.13,10.22-11.82
			c3.04-12.38-4.36-30.83-16.57-41.1c-6.08-5.14-12.76-7.84-19.34-7.84c-3.54,0-7.13,0.77-10.61,2.32
			c-16.08,7.02-29.23,22.93-32.04,38.67c-2.54,14.42,1.33,31.16,10.66,45.97c4.42,6.96,10.94,12.43,17.79,18.23
			c3.54,2.98,7.24,6.08,10.66,9.45c31.71,30.99,41.49,57.35,29.89,80.55c-3.81,7.68-14.59,17.62-32.32,20.39
			c-2.87,0.44-5.91,0.72-8.95,0.72c-14.42,0-36.57-5.14-60.55-29.61c-19.56-21.71-36.85-56.13-32.04-76.3
			c0.5-2.1,2.1-3.76,4.14-4.42c21.88-6.8,33.09-18.07,36.35-36.57c1.27-7.29,0.28-14.42-2.82-19.45c-3.26-5.3-8.01-9.39-9.89-9.39
			c-0.66,0.22-1.38,0.33-2.1,0.33c-2.54,0-4.81-1.55-5.69-3.92c-1.16-3.15,0.44-6.63,3.59-7.84c1.44-0.66,5.03-5.91,7.02-10.77
			c4.47-10.88-23.09-55.47-67.35-60.55c-3.92-0.44-7.9-0.66-11.82-0.66s-7.85,0.22-11.71,0.66c-44.36,5.03-71.93,49.67-67.51,60.55
			c1.99,4.86,5.64,10.11,7.13,10.83c3.09,1.16,4.64,4.64,3.48,7.79c-0.88,2.38-3.15,3.92-5.69,3.92c-0.72,0-1.44-0.11-2.1-0.39
			c-0.17-0.06-0.33-0.06-0.5-0.06c-0.5,0-1.16,0.22-1.88,0.72c-5.25,3.26-10.28,14.09-10.66,18.18
			c-0.99,11.05,2.87,23.31,10.05,31.99c6.52,7.9,15.91,11.33,26.68,14.64c2.04,0.66,3.59,2.32,4.09,4.42
			c4.81,20.17-12.43,54.58-32.1,76.35c-23.87,24.42-46.08,29.56-60.44,29.56c-3.09,0-6.08-0.28-9-0.72
			c-17.73-2.76-28.51-12.71-32.32-20.39c-11.6-23.2-1.82-49.56,29.94-80.55c3.43-3.37,7.07-6.46,10.61-9.45
			c6.91-5.8,13.37-11.27,17.84-18.29c9.28-14.75,13.15-31.49,10.61-45.91c-3.59-19.83-23.09-39.56-41.77-42.15
			c-1.1-0.17-2.26-0.22-3.42-0.22c-7.73,0-15.69,3.54-22.38,9.94c-8.62,8.29-13.31,19.56-12.32,29.5
			c0.66,6.91,5.75,16.91,11.1,21.49c-2.04-6.08-5.41-19.28-0.88-30.83c2.76-6.85,7.79-11.93,15.19-15.14
			c1.93-0.72,4.2-1.05,6.63-1.05c6.91,0,17.18,3.09,25.19,11.77c5.86,6.3,14.25,20.11,4.47,41.55
			c-8.51,17.35-19.45,25.19-30.99,33.48c-7.51,5.36-15.3,10.94-23.59,19.72c-18.67,20-40.05,70.83-7.35,103.64
			c0.22,0.17,0.39,0.33,0.55,0.55c7.07,6.85,16.24,12.21,27.24,15.91c20.05,6.74,43.37,10.77,64.53,8.18
			c10.94-1.33,18.73-8.62,26.8-15.58c0.22-0.17,0.44-0.33,0.66-0.5c22.54-19.56,31.93-39.56,35.86-52.87
			c0.77-2.6,3.15-4.36,5.86-4.36c0.55,0,1.1,0.06,1.66,0.22c3.26,0.94,5.08,4.36,4.14,7.57c-4.42,14.97-14.92,37.4-40,59
			c-0.22,0.22-0.44,0.39-0.72,0.55c-6.41,5.47-13.59,10.72-21.33,15.52c-15.25,9.61-32.26,17.07-50.66,22.32
			c-18.51,5.3-45.25,14.2-64.09,30.61c-19.39,16.91-27.46,38.73-24.75,66.74c2.98,20.33,14.14,31.27,27.57,40.33
			c-5.55-11.1-10.26-22.64-12.28-34.94c-1.3-7.95-0.33-16.21,2.22-23.82c2.38-7.08,5.91-14.77,10.72-20.52
			c4.25-5.08,9.17-9.45,14.14-13.65c5.14-4.09,10.55-7.73,16.08-11.16c11.16-6.57,22.87-12.04,35.03-16.19
			c12.1-4.2,24.59-7.4,37.4-8.67l-34.09,16.57c-11.16,5.64-22.15,11.33-32.65,17.73c-1.99,1.16-3.92,2.38-5.86,3.65
			c17.96-6.13,35.74-9.45,53.09-12.65c38.4-7.07,74.64-13.76,111.38-49.78c0.39-0.39,0.72-0.61,0.99-0.77
			c0.22-0.17,0.55-0.39,0.99-0.55c0.44-0.17,0.83-0.28,1.16-0.28c0.28-0.11,0.66-0.17,1.11-0.17s0.83,0.06,1.11,0.17
			c0.33,0,0.72,0.11,1.22,0.28c0.39,0.17,0.72,0.39,0.94,0.55c0.22,0.11,0.61,0.39,0.99,0.77c36.79,36.02,73.04,42.71,111.38,49.78
			c15.86,2.93,32.1,5.91,48.45,11.16c-1.16-0.77-2.27-1.49-3.43-2.15c-10.5-6.41-21.49-12.1-32.65-17.73l-34.09-16.57
			c12.82,1.27,25.3,4.47,37.4,8.67c12.15,4.14,23.87,9.61,35.03,16.19c5.52,3.43,10.94,7.07,16.08,11.16
			c4.97,4.2,9.89,8.56,14.14,13.65c2.71,3.15,5.25,6.57,7.4,10.22c2.43,3.2,4.36,6.68,5.75,10.44c6.91,18.89-1.16,40.39-10.22,58.62
			c13.42-9.12,24.53-20,27.51-40.39C1229.8,1154.14,1221.68,1132.32,1202.29,1115.47z M983.51,894.42c0,0,0,0-0.06,0.06
			c0,0-0.06,0-0.06,0.06c-0.06,0-0.11,0.05-0.22,0.05c0,0.06-0.06,0.06-0.11,0.11c-0.11,0.06-0.22,0.11-0.33,0.17
			c-0.06,0-0.11,0.06-0.17,0.11c-0.17,0.06-0.33,0.11-0.5,0.22c-0.06,0-0.11,0.06-0.22,0.11c-0.22,0.11-0.5,0.22-0.77,0.33
			c-0.11,0.06-0.17,0.11-0.22,0.11c-0.28,0.11-0.5,0.22-0.77,0.33c-0.11,0.06-0.28,0.11-0.39,0.17c-0.22,0.11-0.5,0.17-0.77,0.28
			c-0.11,0.06-0.28,0.11-0.44,0.17c-0.28,0.11-0.55,0.22-0.88,0.33c-0.11,0.06-0.28,0.11-0.44,0.17c-0.44,0.17-0.88,0.33-1.38,0.44
			h-0.06c-0.5,0.17-0.99,0.33-1.55,0.5c-0.17,0-0.33,0.06-0.5,0.11c-0.39,0.11-0.77,0.22-1.22,0.28c-0.22,0.06-0.39,0.11-0.61,0.17
			c-0.44,0.11-0.83,0.17-1.22,0.28c-0.22,0-0.44,0.06-0.66,0.11c-0.5,0.11-0.99,0.17-1.49,0.22c-0.17,0.06-0.33,0.06-0.5,0.11
			c-0.66,0.06-1.33,0.17-2.04,0.22c-0.17,0.06-0.33,0.06-0.44,0.06c-0.55,0.06-1.16,0.11-1.71,0.11c-0.22,0-0.5,0.06-0.77,0.06
			h-1.49c-0.17,0-0.28,0.06-0.44,0.06c-0.17,0-0.39,0-0.61-0.06h-0.61c-0.5,0-0.99,0-1.49-0.06h-0.44
			c-0.61-0.06-1.27-0.11-1.93-0.17c-0.17-0.06-0.33-0.06-0.5-0.06c-0.5-0.06-0.99-0.17-1.55-0.22c-0.22-0.06-0.44-0.06-0.66-0.11
			c-0.5-0.06-0.99-0.17-1.49-0.28c-0.17,0-0.39-0.06-0.61-0.11c-0.66-0.17-1.38-0.28-2.1-0.5c0,0,0,0-0.06,0
			c-0.66-0.17-1.38-0.39-2.04-0.61c-0.22-0.05-0.44-0.11-0.66-0.17c-0.55-0.17-1.05-0.39-1.6-0.55c-0.22-0.11-0.44-0.17-0.66-0.28
			c-0.61-0.22-1.16-0.44-1.77-0.66c-0.17-0.06-0.33-0.17-0.5-0.22c-0.72-0.33-1.44-0.66-2.21-0.99c-0.17-0.11-0.33-0.17-0.5-0.28
			c-0.61-0.28-1.16-0.61-1.77-0.88c-0.22-0.17-0.5-0.28-0.72-0.44c-0.55-0.28-1.11-0.61-1.66-0.94c-0.22-0.17-0.44-0.28-0.66-0.44
			c-0.77-0.5-1.55-0.99-2.32-1.49c-0.39-0.28-0.83-0.61-1.22-0.94c-0.11-0.11-0.22-0.17-0.33-0.28c-0.22-0.22-0.5-0.44-0.72-0.66
			c-0.17-0.17-0.28-0.28-0.39-0.44c-0.22-0.17-0.44-0.39-0.61-0.61c-0.11-0.17-0.22-0.33-0.39-0.44c-0.17-0.22-0.33-0.44-0.5-0.66
			c-0.11-0.17-0.22-0.33-0.33-0.5c-0.17-0.22-0.28-0.44-0.44-0.66c-0.11-0.17-0.17-0.33-0.28-0.5c-0.11-0.22-0.28-0.44-0.39-0.66
			c-0.06-0.17-0.17-0.39-0.22-0.55c-0.11-0.22-0.22-0.44-0.33-0.72c-0.06-0.17-0.17-0.33-0.22-0.5c-0.11-0.28-0.17-0.5-0.28-0.77
			c-0.05-0.17-0.11-0.33-0.11-0.44c-0.11-0.39-0.22-0.72-0.28-1.11c0-0.06-0.06-0.11-0.06-0.17c-0.11-0.44-0.17-0.88-0.22-1.27
			c0-0.17-0.06-0.33-0.06-0.44c0-0.28-0.06-0.55-0.06-0.83c0-0.22,0-0.39-0.06-0.55v-0.77c0-0.17,0-0.33,0.06-0.55v-0.66
			c0.06-0.22,0.06-0.39,0.11-0.61c0-0.22,0.06-0.44,0.06-0.66c0.06-0.17,0.06-0.39,0.11-0.55c0.06-0.22,0.11-0.44,0.17-0.66
			s0.06-0.39,0.11-0.55c0.06-0.22,0.17-0.44,0.22-0.66c0.06-0.17,0.11-0.33,0.17-0.5c0.06-0.28,0.17-0.5,0.28-0.72
			c0.06-0.11,0.11-0.28,0.17-0.44c0.11-0.28,0.28-0.5,0.39-0.77c0.06-0.11,0.11-0.22,0.17-0.33c0.22-0.33,0.39-0.66,0.61-0.99
			c0.11-0.11,0.22-0.22,0.28-0.39c0.17-0.17,0.28-0.39,0.44-0.61c0.11-0.11,0.22-0.22,0.33-0.39l0.5-0.5
			c0.11-0.11,0.22-0.28,0.39-0.39c0.17-0.17,0.28-0.28,0.5-0.44c0.11-0.11,0.28-0.22,0.39-0.33c0.17-0.17,0.39-0.28,0.55-0.44
			c0.17-0.06,0.28-0.17,0.44-0.28c0.22-0.11,0.39-0.22,0.61-0.39c0.17-0.06,0.28-0.17,0.44-0.22c0.22-0.11,0.44-0.22,0.66-0.33
			c0.17-0.06,0.33-0.17,0.5-0.22c0.22-0.06,0.5-0.17,0.72-0.22c0.17-0.06,0.33-0.11,0.5-0.17c0.28-0.11,0.61-0.17,0.94-0.22
			c0.11-0.06,0.22-0.06,0.33-0.11c0.44-0.06,0.88-0.11,1.38-0.17h0.33c0.33-0.05,0.61-0.05,0.94-0.05h0.55
			c0.33,0.05,0.66,0.05,1.05,0.11c0.17,0,0.33,0,0.5,0.06c0.33,0,0.66,0.06,1.05,0.17c0.17,0,0.28,0,0.44,0.06
			c0.5,0.11,1.05,0.22,1.55,0.39h0.06c1.88,0.5,3.87,1.27,5.8,2.21c2.98,1.38,5.97,3.15,8.95,5.14c3.37,2.32,6.68,4.97,9.83,7.73
			c1.55,1.38,3.04,2.82,4.47,4.2c1.38,1.38,2.76,2.82,3.98,4.2c0.17,0.11,0.28,0.28,0.39,0.39c1.22,1.38,2.32,2.65,3.37,3.92
			c0.22,0.28,0.44,0.61,0.72,0.88c0.94,1.27,1.88,2.49,2.6,3.59H983.51z M1022.9,897.19c-0.17-0.06-0.28-0.11-0.44-0.17
			c-0.33-0.11-0.61-0.22-0.88-0.33c-0.17-0.06-0.28-0.11-0.44-0.17c-0.28-0.11-0.55-0.17-0.77-0.28c-0.11-0.06-0.28-0.11-0.39-0.17
			c-0.28-0.11-0.5-0.22-0.77-0.33c-0.06,0-0.11-0.06-0.17-0.11c-0.33-0.11-0.61-0.22-0.83-0.33c-0.05-0.06-0.11-0.11-0.22-0.11
			c-0.17-0.11-0.33-0.17-0.44-0.22c-0.11-0.05-0.17-0.11-0.22-0.11c-0.11-0.06-0.22-0.11-0.28-0.17s-0.11-0.06-0.17-0.11
			c-0.11,0-0.17-0.05-0.22-0.11h-0.06c-0.06-0.06-0.06-0.06-0.06-0.06c3.26-4.97,9.45-11.99,16.8-18.29c1.82-1.6,3.7-3.09,5.63-4.53
			c2.87-2.15,5.86-4.14,8.84-5.75c1.49-0.83,2.98-1.55,4.48-2.15c1.44-0.66,2.93-1.16,4.36-1.55c0.5-0.17,1.05-0.28,1.55-0.39
			c0.17-0.06,0.33-0.06,0.44-0.11c0.39-0.06,0.72-0.11,1.1-0.11c0.17-0.06,0.33-0.06,0.5-0.06c0.33-0.06,0.66-0.06,1.05-0.11h0.39
			c0,0,0.06,0,0.11,0c0.33,0,0.61,0,0.94,0.05h0.39l1.33,0.17c0.11,0.06,0.22,0.06,0.33,0.11c0.33,0.06,0.66,0.11,0.94,0.22
			c0.17,0.06,0.33,0.11,0.5,0.17c0.22,0.06,0.5,0.17,0.72,0.22c0.17,0.06,0.33,0.17,0.5,0.22c0.22,0.11,0.44,0.22,0.66,0.33
			c0.17,0.06,0.33,0.17,0.44,0.22c0.22,0.11,0.44,0.28,0.61,0.39c0.17,0.11,0.33,0.17,0.44,0.28c0.22,0.17,0.39,0.28,0.55,0.44
			c0.17,0.11,0.28,0.22,0.44,0.33c0.17,0.17,0.33,0.33,0.5,0.44c0.11,0.17,0.22,0.28,0.33,0.39c0.17,0.17,0.33,0.33,0.5,0.55
			c0.11,0.11,0.22,0.22,0.33,0.33c0.17,0.22,0.33,0.44,0.5,0.66c0.06,0.11,0.11,0.22,0.22,0.33c0.22,0.33,0.44,0.66,0.61,0.99
			c0.06,0.11,0.11,0.22,0.17,0.33c0.11,0.22,0.28,0.5,0.39,0.77c0.06,0.17,0.11,0.28,0.17,0.44c0.11,0.22,0.22,0.44,0.28,0.72
			c0.06,0.17,0.11,0.33,0.17,0.5c0.11,0.22,0.17,0.44,0.22,0.66c0.06,0.17,0.11,0.33,0.11,0.55c0.06,0.22,0.11,0.44,0.17,0.66
			c0.06,0.17,0.06,0.39,0.11,0.55c0.06,0.22,0.06,0.44,0.11,0.66c0,0.22,0.06,0.39,0.06,0.61s0,0.44,0.06,0.66v1.33
			c0,0.17,0,0.33-0.06,0.55c0,0.28,0,0.55-0.06,0.83c0,0.11,0,0.28-0.06,0.44c-0.06,0.39-0.11,0.83-0.22,1.27
			c0,0.06,0,0.11-0.06,0.22c-0.06,0.33-0.17,0.66-0.22,1.05c-0.06,0.11-0.11,0.28-0.17,0.44c-0.11,0.28-0.17,0.5-0.28,0.77
			c-0.06,0.17-0.11,0.33-0.22,0.5c-0.11,0.28-0.17,0.5-0.28,0.72c-0.11,0.17-0.17,0.39-0.28,0.55c-0.11,0.22-0.22,0.44-0.39,0.66
			c-0.06,0.17-0.17,0.33-0.28,0.5c-0.17,0.22-0.28,0.44-0.44,0.66c-0.11,0.17-0.22,0.33-0.33,0.5c-0.17,0.22-0.33,0.44-0.5,0.66
			c-0.11,0.11-0.28,0.28-0.39,0.44c-0.17,0.22-0.39,0.39-0.61,0.61c-0.11,0.17-0.22,0.28-0.39,0.44c-0.22,0.22-0.44,0.44-0.72,0.66
			c-0.11,0.06-0.22,0.17-0.33,0.28c-0.39,0.33-0.77,0.66-1.22,0.94c-0.77,0.5-1.55,0.99-2.26,1.49c-0.28,0.17-0.5,0.28-0.72,0.44
			c-0.55,0.33-1.11,0.66-1.6,0.94c-0.28,0.17-0.5,0.28-0.77,0.44c-0.55,0.28-1.16,0.61-1.71,0.88c-0.22,0.11-0.39,0.17-0.55,0.28
			c-0.72,0.33-1.49,0.66-2.21,0.99c-0.17,0.06-0.33,0.17-0.5,0.22c-0.61,0.22-1.16,0.44-1.71,0.66c-0.28,0.11-0.5,0.17-0.72,0.28
			c-0.55,0.17-1.05,0.39-1.6,0.55c-0.22,0.06-0.39,0.11-0.61,0.17c-0.72,0.22-1.44,0.44-2.1,0.61h-0.05
			c-0.72,0.22-1.38,0.33-2.1,0.5c-0.22,0.06-0.44,0.11-0.61,0.11c-0.5,0.11-0.99,0.22-1.49,0.28c-0.22,0.06-0.44,0.06-0.66,0.11
			c-0.55,0.06-1.05,0.17-1.55,0.22c-0.17,0-0.33,0-0.5,0.06c-0.66,0.06-1.27,0.11-1.93,0.17h-0.44c-0.5,0.06-0.99,0.06-1.49,0.06
			h-0.61c-0.22,0.06-0.39,0.06-0.61,0.06c-0.17,0-0.28-0.06-0.44-0.06h-1.49c-0.28,0-0.5-0.06-0.77-0.06c-0.55,0-1.1-0.06-1.66-0.11
			c-0.17,0-0.33,0-0.5-0.06c-0.66-0.06-1.38-0.17-2.04-0.22c-0.17-0.06-0.33-0.06-0.5-0.11c-0.5-0.06-0.99-0.11-1.44-0.22
			c-0.22-0.06-0.44-0.11-0.66-0.11c-0.44-0.11-0.83-0.17-1.22-0.28c-0.22-0.06-0.44-0.11-0.66-0.17c-0.39-0.06-0.83-0.17-1.22-0.28
			c-0.17-0.06-0.33-0.11-0.5-0.11c-0.5-0.17-1.05-0.33-1.55-0.5C1023.84,897.52,1023.34,897.35,1022.9,897.19z"/>
		<path d="M1142.04,1017.35c-0.01,0-0.03,0-0.04,0c0,0,0.01,0,0.01,0C1142.01,1017.36,1142.02,1017.35,1142.04,1017.35z"/>
		<path d="M1030.9,984.28c0.18-0.05,0.36-0.06,0.53-0.04c-0.03,0-0.07-0.02-0.1-0.02C1031.19,984.22,1031.05,984.24,1030.9,984.28z"
			/>
		<path d="M968.64,984.23c0.17-0.01,0.35-0.01,0.53,0.04c-0.14-0.04-0.29-0.06-0.43-0.06C968.7,984.22,968.67,984.23,968.64,984.23z
			"/>
		<path d="M1075.64,841.89c-0.19,0.07-0.38,0.09-0.57,0.09c0.01,0,0.03,0.01,0.04,0.01
			C1075.28,841.98,1075.46,841.95,1075.64,841.89z"/>
		<path d="M859.69,1017.36c-0.02,0-0.03,0-0.05,0c0.01,0,0.02,0,0.04,0C859.68,1017.36,859.69,1017.36,859.69,1017.36z"/>
		<path d="M839.05,822.74c0.24-0.01,0.48,0,0.72,0c-0.08,0-0.17-0.02-0.25-0.02C839.36,822.72,839.21,822.73,839.05,822.74z"/>
		<path d="M926.61,841.98c-0.19,0-0.38-0.02-0.57-0.09c0.17,0.07,0.35,0.1,0.53,0.1C926.58,841.98,926.6,841.98,926.61,841.98z"/>
		<path d="M1331.81,984.62c-0.35-0.01-0.67-0.01-1-0.01c-5.75,0-11.98,1.33-18.6,3.97c7.19,0.49,13.46,2.39,18.7,5.66
			c10.05,6.28,15.74,17.21,16.91,32.47c1.08,15.2-10.01,30.92-26.37,37.41c-3.57,1.42-9.35,3.11-16.59,3.11
			c-12.28,0-30.98-4.98-50.32-28.68c-6.11-7.5-10.2-15.72-14.15-23.66c-4.93-9.9-9.29-18.67-16.82-25.67
			c-0.6,16.24-6.13,30.86-16.24,42.95c11.15,7.05,21.2,16.15,30.19,24.31c12.41,11.25,25.25,22.89,40.17,29.38
			c8.97,3.91,19.19,5.98,29.55,5.98c13.38,0,26.64-3.48,37.33-9.8c16.16-9.55,26-24.89,27.69-43.2
			c1.31-13.93-4.21-30.04-14.05-41.06C1352.95,991.9,1344.11,984.85,1331.81,984.62z"/>
		<path d="M1307.75,993.01c0.4,0,0.8,0,1.2,0c-0.19,0-0.39-0.01-0.58-0.01C1308.16,993,1307.96,993.01,1307.75,993.01z"/>
	</g>
</g>
</svg>

