
<?xml version="1.0" encoding="utf-8"?>
<!-- Generator: Adobe Illustrator 25.0.0, SVG Export Plug-In . SVG Version: 6.00 Build 0)  -->
<svg version="1.1" id="Layer_1" xmlns="http://www.w3.org/2000/svg" xmlns:xlink="http://www.w3.org/1999/xlink" x="0px" y="0px"
	 viewBox="0 0 2000 2000" style="enable-background:new 0 0 2000 2000;" xml:space="preserve">
<style type="text/css">
	.st0{display:none;fill:#03036D;}
	.st1{display:none;fill:#F1F1F1;}
	.st2{fill:#FFFFFF;}
</style>
<rect class="st0" width="2000" height="2000"/>
<g>
	<g>
		<path d="M482.15,1223.94c-0.37-0.15-0.8-0.21-1.17-0.35c0.05-0.02,0.11-0.03,0.16-0.06c4.18-2.15,7.42-5.11,9.76-8.88
			c2.33-3.77,3.5-8.21,3.5-13.32c0-8.43-2.82-14.63-8.42-18.62c-5.6-4-13.29-6-23.07-6h-25.03v97.27h28.94
			c4.11,0,8.12-0.52,11.96-1.55c3.86-1.03,7.31-2.64,10.36-4.84s5.47-5.02,7.26-8.48c1.8-3.45,2.69-7.59,2.69-12.44
			c0-5.3-1.52-9.87-4.57-13.72C491.47,1229.09,487.35,1226.09,482.15,1223.94z M450.93,1189.23h12.64c5.3,0,9.51,1.17,12.66,3.5
			c3.13,2.34,4.7,6.06,4.7,11.17c0,4.3-1.2,7.96-3.62,10.96s-6.33,4.51-11.71,4.51h-14.67V1189.23z M483.16,1255.28
			c-1.76,2.25-4.13,3.91-7.14,4.98c-3.01,1.08-6.3,1.61-9.89,1.61h-15.2v-30.01h14.4c3.32,0,6.55,0.47,9.68,1.42
			c3.15,0.93,5.73,2.48,7.74,4.64c2.03,2.15,3.02,5.11,3.02,8.88C485.77,1250.21,484.9,1253.03,483.16,1255.28z"/>
		<path d="M695.11,1228.18c2.59-3.01,4.46-6.34,5.57-10.03c1.12-3.67,1.69-7.44,1.69-11.3c0-4.94-0.87-9.26-2.63-12.99
			c-1.76-3.72-4.18-6.85-7.26-9.41c-3.1-2.55-6.72-4.48-10.9-5.79c-4.18-1.3-8.72-1.95-13.65-1.95H642.1v97.27h13.05v-35.79h14.4
			c1.12,0,2.05-0.19,3.1-0.25l23,36.04h15.06l-24.43-39.29C689.8,1232.95,692.81,1230.83,695.11,1228.18z M669.28,1225.68h-14.13
			v-36.45h15.08c3.4,0,6.3,0.59,8.67,1.76c2.37,1.15,4.3,2.64,5.79,4.43c1.47,1.8,2.55,3.75,3.23,5.85c0.66,2.1,1,4.15,1,6.12
			c0,1.88-0.3,3.89-0.93,6.06c-0.63,2.15-1.66,4.15-3.1,5.98c-1.42,1.84-3.42,3.34-5.98,4.51
			C676.33,1225.11,673.14,1225.68,669.28,1225.68z"/>
		<polygon points="864.87,1231.32 909.67,1231.32 909.67,1218.83 864.87,1218.83 864.87,1189.23 915.05,1189.23 915.05,1176.71 
			851.82,1176.71 851.82,1273.98 916.93,1273.98 916.93,1261.46 864.87,1261.46 		"/>
		<path d="M1093.43,1172.68l-42.51,101.3h12.78l10.45-25.57h37.49l10.04,25.57h14.93l-42.38-101.3H1093.43z M1078.77,1237.11
			l14.5-35.48l13.94,35.48H1078.77z"/>
		<path d="M1327.1,1260.26c-3.86,1.52-8.24,2.28-13.18,2.28c-5.47,0-10.41-0.93-14.79-2.82c-4.4-1.88-8.15-4.49-11.25-7.82
			c-3.08-3.31-5.46-7.23-7.12-11.77c-1.66-4.52-2.48-9.43-2.48-14.73c0-5.19,0.92-10.06,2.75-14.59c1.84-4.52,4.37-8.5,7.59-11.91
			c3.23-3.4,6.96-6.04,11.17-7.93c4.21-1.9,8.7-2.83,13.45-2.83c4.67,0,8.91,0.81,12.72,2.42c3.81,1.61,7.06,3.32,9.75,5.11
			l5.25-12.1c-3.4-2.15-7.48-4.02-12.25-5.58c-4.75-1.57-10.05-2.36-15.87-2.36c-6.99,0-13.43,1.27-19.3,3.77
			c-5.89,2.52-10.96,6.04-15.27,10.57c-4.32,4.52-7.66,9.86-10.03,16.01c-2.37,6.14-3.56,12.85-3.56,20.11
			c0,6.63,1.14,12.89,3.43,18.76c2.28,5.87,5.52,11.06,9.75,15.54c4.21,4.49,9.35,8.04,15.41,10.63c6.04,2.59,12.85,3.94,20.38,4.03
			c4.4,0,8.45-0.44,12.17-1.34c3.73-0.9,6.98-2.03,9.76-3.37c2.78-1.34,4.98-2.55,6.6-3.62l-5.52-11.56
			C1334.14,1257.03,1330.96,1258.73,1327.1,1260.26z"/>
		<polygon points="1549.21,1176.71 1549.21,1218.95 1498.22,1218.95 1498.22,1176.71 1485.17,1176.71 1485.17,1273.98 
			1498.22,1273.98 1498.22,1231.32 1549.21,1231.32 1549.21,1273.98 1562.12,1273.98 1562.12,1176.71 		"/>
	</g>
	<g>
		<g>
			<g>
				<g>
					<g>
						<g>
							<g id="XMLID_9_">
								<g id="XMLID_10_">
									<path d="M1110.32,985.81c-1.81,0-3.29-1.46-3.3-3.27c-0.02-1.83,1.45-3.32,3.27-3.34c17.97-0.17,34.22-2.87,51.15-8.49
										c11.19-3.73,20.48-9.2,27.59-16.26c0.13-0.13,0.27-0.25,0.41-0.35c17.18-17.25,18.63-37.86,16.82-52.16
										c-2.71-21.47-13.97-41.76-23.92-52.35c-8.23-8.75-15.89-14.23-23.29-19.53c-11.01-7.88-21.39-15.32-29.36-31.58
										c-8.86-19.44-1.34-31.87,3.92-37.56c7.64-8.26,20.24-12.62,28.08-9.77c6.51,2.8,10.93,7.24,13.32,13.27
										c5.43,13.69-1.8,30.69-2.11,31.4c-0.23,0.73-0.4,1.89-0.37,2.58c0.1-0.01,0.22-0.03,0.36-0.06
										c8.2-1.72,16.2-16.71,17.08-25.57c1.07-10.41-3.8-22.19-12.7-30.76c-8.09-7.78-18.04-11.5-27.29-10.19
										c-19.49,2.69-39.12,22.43-42.89,43.13c-2.6,14.67,1.3,31.64,10.71,46.56c4.53,7.15,11.01,12.61,17.86,18.38
										c3.41,2.87,6.94,5.85,10.21,9.05c29.96,29.29,39.31,53.94,28.6,75.36c-4.55,9.1-16.14,16.34-29.53,18.44
										c-12.47,1.97-37.57,1.03-65.29-27.26l-3.28-3.69c-1.21-1.37-1.08-3.46,0.28-4.67c1.37-1.22,3.45-1.09,4.67,0.28l3.17,3.57
										c25.54,26.06,48.2,26.97,59.42,25.24c12.9-2.03,21.68-8.93,24.65-14.87c9.26-18.51,0.33-40.65-27.31-67.67
										c-3.1-3.03-6.53-5.93-9.85-8.72c-6.93-5.84-14.1-11.88-19.18-19.9c-10.28-16.29-14.52-34.98-11.63-51.26
										c4.23-23.26,26.43-45.47,48.48-48.5c11.3-1.62,23.22,2.77,32.79,11.97c10.33,9.95,15.97,23.81,14.7,36.19
										c-0.94,9.51-9.43,28.7-22.3,31.38c-3.56,0.74-5.63-0.52-6.7-1.75c-2.75-3.11-1.32-8.15-0.81-9.62
										c0.57-1.36,11.71-27.87-7.5-36.15c-3.96-1.43-13.79,0.57-20.79,8.12c-5.07,5.47-9.67,15.17-2.79,30.25
										c7.19,14.67,16.47,21.33,27.23,29.03c7.31,5.23,15.58,11.16,24.26,20.37c10.68,11.37,22.76,33.11,25.66,56.05
										c2.88,22.68-3.65,42.67-18.86,57.82c-0.12,0.12-0.26,0.25-0.43,0.35c-7.82,7.71-17.91,13.66-30,17.69
										c-17.6,5.84-34.5,8.64-53.17,8.82C1110.34,985.81,1110.33,985.81,1110.32,985.81z"/>
									<path d="M1053.48,954.81c-0.93,0-1.85-0.39-2.5-1.15c-2.09-2.43-4.05-4.85-5.86-7.21c-1.12-1.45-0.85-3.52,0.59-4.63
										c1.46-1.12,3.52-0.85,4.63,0.59c1.75,2.27,3.63,4.6,5.64,6.94c1.19,1.38,1.03,3.47-0.35,4.66
										C1055.01,954.54,1054.24,954.81,1053.48,954.81z"/>
									<path d="M1042.7,907.75c-1.83,0-3.3-1.48-3.3-3.3c0-4.29,3.41-10.32,8.59-19.46c2.49-4.39,5.33-9.42,8.24-15.05
										c8.09-15.79,18.87-40.23,18.87-69.93c0-49.68-47.2-62.93-75.08-62.93c-1.83,0-3.3-1.48-3.3-3.3c0-1.83,1.48-3.3,3.3-3.3
										c30.34,0,81.69,14.65,81.69,69.54c0,31.13-11.19,56.55-19.6,72.96c-2.95,5.72-5.84,10.82-8.37,15.28
										c-3.97,7.02-7.73,13.65-7.73,16.2C1046.01,906.27,1044.53,907.75,1042.7,907.75z"/>
								</g>
								<path d="M1299.14,1023.36c-11.12,0-22.28-2.21-32.56-6.7c-15.96-6.94-29.02-18.78-41.64-30.22
									c-11.44-10.38-22.25-20.18-35.08-26.7c-1.63-0.83-2.28-2.81-1.45-4.44c0.83-1.63,2.83-2.27,4.44-1.45
									c13.61,6.92,25.26,17.48,36.52,27.69c12.23,11.09,24.87,22.55,39.84,29.06c21.29,9.29,47.75,7.77,67.45-3.85
									c16.47-9.73,26.48-25.37,28.21-44.05c1.34-14.23-4.29-30.69-14.33-41.93c-5.46-6.11-14.68-13.45-27.59-13.68
									c-9.48-0.28-20.13,3.01-31.92,9.87c-1.61,0.99-3.41,2.46-5.31,4.01c-2.96,2.43-6.01,4.94-9.31,6.29
									c-1.68,0.72-3.62-0.1-4.31-1.79c-0.7-1.69,0.11-3.62,1.79-4.31c2.38-0.98,5.05-3.18,7.63-5.29
									c1.99-1.63,4.05-3.33,6.13-4.59c12.93-7.53,24.62-10.96,35.43-10.8c12.1,0.23,23.3,5.72,32.38,15.89
									c11.21,12.54,17.48,30.97,15.98,46.95c-1.93,20.84-13.1,38.29-31.44,49.12C1327.77,1019.68,1313.48,1023.36,1299.14,1023.36
									z"/>
								<path d="M1296.63,987.49c-12.32,0-29.25-5.29-46.9-26.96c-5.74-7.05-9.66-14.9-13.44-22.49
									c-5.68-11.41-11.05-22.19-22.11-29.9c-2.07-1.48-4.11-2.7-6.06-3.62c-1.65-0.77-2.36-2.74-1.58-4.4
									c0.77-1.66,2.76-2.36,4.4-1.58c2.32,1.09,4.7,2.5,7.06,4.2c12.41,8.66,18.41,20.7,24.21,32.35
									c3.62,7.27,7.37,14.79,12.65,21.27c24.33,29.85,46.26,25.42,54.55,22.14c12.11-4.8,20.66-16.48,19.9-27.16
									c-0.9-11.79-5.02-20.05-12.23-24.52c-14.96-9.26-38.79-0.28-40.57,0.41c-2.12,1.04-4.78-0.63-4.78-2.96
									c0-1.32,0.77-2.47,1.9-2.99c0.1-0.05,0.2-0.1,0.3-0.14v-0.01c1.15-0.46,28.38-11.26,46.63,0.06
									c9.1,5.64,14.27,15.61,15.34,29.65c0.98,13.67-9.14,27.87-24.05,33.79C1308.49,985.97,1303.22,987.48,1296.63,987.49z"/>
							</g>
						</g>
					</g>
					<path d="M1189.69,1147.73c-6.74,0-15.49-1.3-22.42-6.82c-7.3-5.8-11.01-14.93-11.01-27.14c0-25.47,17.47-29.22,30.22-31.95
						c9.81-2.1,13.8-3.45,13.8-8.37c0-18.62-21.44-26.16-39.41-29.19c-60.23-10.04-97.44-40.97-110.59-91.93
						c-0.68-2.73-1.36-5.58-1.9-8.48c-0.34-1.79,0.85-3.52,2.64-3.85c1.75-0.35,3.52,0.85,3.85,2.64c0.52,2.78,1.16,5.48,1.81,8.06
						c18.73,72.62,83.87,83.48,105.27,87.05c29.4,4.96,44.93,17.31,44.93,35.71c0,10.75-10.11,12.92-19.03,14.83
						c-12.28,2.63-24.99,5.36-24.99,25.49c0,10.08,2.85,17.46,8.48,21.95c4.4,3.51,9.95,4.85,14.89,5.25
						c-7.85-4.85-16.56-13.1-16.56-25.81c0-10.73,11.57-15.16,23.83-19.84c16-6.13,34.14-13.06,34.14-34.36
						c0-30.31-65.4-54.2-96.82-65.69c-8.01-2.92-14.34-5.23-17.68-6.91c-1.83-0.91-3.52-2.06-5.02-3.4
						c-9.98-8.79-10.52-31.03-9.72-51.62c0.07-1.74,0.12-3.12,0.12-4.03c0-1.83,1.48-3.3,3.3-3.3c1.83,0,3.3,1.48,3.3,3.3
						c0,0.96-0.06,2.43-0.13,4.29c-0.41,10.53-1.48,38.5,7.51,46.42c1.08,0.97,2.29,1.78,3.59,2.43c3.01,1.5,9.18,3.76,17,6.62
						c35.35,12.92,101.16,36.95,101.16,71.89c0,25.85-22.19,34.33-38.39,40.53c-10.5,4.02-19.57,7.49-19.57,13.67
						c0,17.69,23.84,25.05,24.08,25.12c1.43,0.43,2.4,1.78,2.35,3.27c-0.05,1.5-1.09,2.78-2.55,3.12
						C1199.8,1146.76,1195.48,1147.73,1189.69,1147.73z"/>
				</g>
				<g>
					<g>
						<g>
							<g id="XMLID_3_">
								<g id="XMLID_5_">
									<path d="M946.52,954.81c-0.77,0-1.54-0.26-2.16-0.8c-1.38-1.19-1.54-3.28-0.35-4.66c2.01-2.34,3.89-4.67,5.64-6.94
										c1.11-1.44,3.19-1.7,4.63-0.59c1.45,1.11,1.71,3.19,0.59,4.63c-1.81,2.36-3.77,4.78-5.86,7.21
										C948.38,954.42,947.45,954.81,946.52,954.81z"/>
									<path d="M889.68,985.81c-0.01,0-0.02,0-0.03,0c-18.68-0.18-35.57-2.98-53.16-8.82c-12.1-4.03-22.19-9.99-30.02-17.69
										c-0.16-0.12-0.31-0.24-0.43-0.36c-15.21-15.15-21.73-35.14-18.85-57.81c2.9-22.93,14.98-44.67,25.66-56.05
										c8.68-9.22,16.95-15.15,24.26-20.38c10.75-7.7,20.04-14.36,27.27-29.11c6.84-15,2.23-24.69-2.83-30.16
										c-6.99-7.56-16.81-9.57-20.95-8.05c-19.04,8.22-7.91,34.72-7.42,35.84c0.6,1.71,2.03,6.75-0.72,9.86
										c-1.07,1.21-3.14,2.49-6.7,1.75c-12.87-2.69-21.36-21.87-22.31-31.4c-1.27-12.36,4.37-26.23,14.7-36.17
										c9.57-9.21,21.54-13.54,32.82-11.98c22.04,3.03,44.24,25.24,48.46,48.48c2.88,16.31-1.36,34.99-11.63,51.27
										c-5.09,8.03-12.26,14.07-19.19,19.91c-3.32,2.8-6.75,5.69-9.85,8.72c-27.64,27.02-36.57,49.16-27.31,67.67
										c2.97,5.94,11.74,12.85,24.65,14.87c11.19,1.75,33.88,0.81,59.53-25.36c11.56-12.85,25.23-9.44,33.41-7.4
										c1.63,0.41,3.74,0.93,4.9,1.01c-0.34-3.32-3.9-9.61-7.65-16.25c-10.46-18.52-27.97-49.52-27.97-88.21
										c0-54.89,51.36-69.54,81.7-69.54c1.83,0,3.3,1.48,3.3,3.3c0,1.83-1.48,3.3-3.3,3.3c-27.89,0-75.09,13.25-75.09,62.93
										c0,36.95,16.97,67,27.12,84.95c5.16,9.15,8.58,15.19,8.58,19.48c0,2.39-0.76,4.2-2.26,5.36c-2.69,2.11-6.32,1.2-10.92,0.06
										c-8.01-1.99-17.99-4.49-27,5.51c-27.81,28.38-52.89,29.34-65.38,27.36c-13.39-2.1-24.98-9.34-29.53-18.44
										c-10.71-21.42-1.36-46.06,28.6-75.36c3.27-3.2,6.8-6.18,10.21-9.05c6.86-5.77,13.33-11.23,17.87-18.38
										c9.4-14.9,13.3-31.89,10.71-46.57c-3.76-20.68-23.39-40.42-42.87-43.11c-9.25-1.32-19.23,2.41-27.31,10.19
										c-8.91,8.57-13.77,20.35-12.71,30.75c0.88,8.88,8.88,23.87,17.09,25.59c0.14,0.03,0.26,0.05,0.36,0.06
										c0.03-0.74-0.18-2.01-0.46-2.82c-0.22-0.48-7.45-17.47-2.01-31.16c2.39-6.03,6.81-10.47,13.15-13.2
										c8-2.92,20.6,1.43,28.25,9.7c5.27,5.69,12.79,18.12,3.96,37.48c-8,16.34-18.39,23.78-29.4,31.66
										c-7.4,5.31-15.06,10.79-23.29,19.53c-9.95,10.59-21.2,30.89-23.92,52.35c-1.81,14.3-0.36,34.93,16.82,52.16
										c0.14,0.1,0.28,0.22,0.41,0.35c7.11,7.06,16.4,12.53,27.6,16.26c16.91,5.62,33.17,8.31,51.14,8.49
										c1.83,0.02,3.29,1.51,3.27,3.34C892.97,984.35,891.5,985.81,889.68,985.81z"/>
								</g>
								<path d="M700.86,1023.36c-14.34,0-28.62-3.68-40.89-10.93c-18.34-10.83-29.51-28.28-31.44-49.13
									c-1.5-15.97,4.78-34.4,15.98-46.94c9.09-10.17,20.29-15.67,32.39-15.89c11.03-0.23,22.5,3.28,35.37,10.76
									c2.14,1.3,4.2,3,6.2,4.63c2.58,2.12,5.23,4.31,7.62,5.29c1.68,0.69,2.49,2.62,1.79,4.31c-0.69,1.69-2.62,2.51-4.31,1.79
									c-3.29-1.36-6.35-3.86-9.3-6.29c-1.9-1.56-3.7-3.03-5.38-4.06c-11.74-6.82-22.29-9.97-31.86-9.83
									c-12.92,0.24-22.13,7.57-27.59,13.68c-10.04,11.24-15.67,27.7-14.33,41.92c1.73,18.68,11.75,34.33,28.21,44.06
									c19.69,11.63,46.17,13.14,67.44,3.86c14.98-6.51,27.63-17.98,39.86-29.07c11.26-10.21,22.9-20.77,36.51-27.69
									c1.62-0.82,3.62-0.18,4.44,1.45c0.83,1.63,0.18,3.61-1.45,4.44c-12.82,6.52-23.63,16.32-35.06,26.7
									c-12.63,11.45-25.68,23.29-41.66,30.24C723.14,1021.15,711.98,1023.36,700.86,1023.36z"/>
								<path d="M703.37,987.48c-6.59,0.01-11.86-1.51-15.22-2.84c-14.91-5.91-25.03-20.11-24.06-33.77
									c1.08-14.06,6.25-24.03,15.36-29.67c18.27-11.32,45.48-0.52,46.62-0.05l0,0c0.1,0.04,0.2,0.08,0.3,0.14
									c1.12,0.53,1.89,1.67,1.89,2.99c0,2.33-2.63,4-4.78,2.96c-1.78-0.69-25.58-9.66-40.56-0.41
									c-7.21,4.47-11.33,12.72-12.24,24.54c-0.76,10.67,7.8,22.34,19.91,27.14c8.3,3.28,30.22,7.71,54.54-22.14
									c5.29-6.49,9.03-14.01,12.65-21.28c5.8-11.64,11.8-23.68,24.24-32.37c2.33-1.67,4.71-3.09,7.03-4.18
									c1.64-0.77,3.62-0.08,4.4,1.58c0.78,1.65,0.07,3.62-1.58,4.4c-1.96,0.92-3.99,2.14-6.03,3.6
									c-11.09,7.74-16.45,18.51-22.13,29.91c-3.79,7.6-7.7,15.45-13.45,22.5C732.61,982.19,715.69,987.48,703.37,987.48z"/>
							</g>
						</g>
					</g>
					<path d="M810.32,1147.73c-5.8,0-10.11-0.97-10.48-1.05c-1.46-0.34-2.5-1.62-2.55-3.12c-0.05-1.5,0.92-2.84,2.35-3.27
						c0.25-0.07,24.08-7.44,24.08-25.12c0-6.18-9.07-9.65-19.58-13.67c-16.2-6.2-38.39-14.69-38.39-40.53
						c0-34.93,65.81-58.97,101.16-71.89c7.82-2.86,13.99-5.11,17-6.62c1.32-0.66,2.52-1.47,3.57-2.41c8.63-7.6,7-33.34,6.31-44.33
						c-0.15-2.45-0.27-4.39-0.27-5.58c0-1.83,1.48-3.3,3.3-3.3c1.83,0,3.3,1.48,3.3,3.3c0,1.1,0.12,2.89,0.26,5.16
						c0.88,13.97,2.53,39.96-8.51,49.68c-1.47,1.32-3.16,2.47-5,3.39c-3.34,1.67-9.67,3.98-17.68,6.91
						c-31.43,11.48-96.82,35.37-96.82,65.69c0,21.29,18.14,28.23,34.15,34.36c12.25,4.69,23.83,9.11,23.83,19.84
						c0,12.71-8.71,20.95-16.56,25.81c4.94-0.39,10.49-1.74,14.89-5.25c5.63-4.49,8.48-11.87,8.48-21.95
						c0-20.13-12.71-22.86-24.99-25.49c-8.92-1.91-19.03-4.08-19.03-14.83c0-18.4,15.54-30.74,44.93-35.71
						c21.41-3.57,86.55-14.43,105.28-87.06c0.65-2.56,1.29-5.27,1.81-8.04c0.34-1.8,2.09-2.99,3.85-2.64
						c1.79,0.33,2.98,2.06,2.64,3.85c-0.54,2.9-1.21,5.75-1.89,8.46c-13.15,50.97-50.36,81.91-110.6,91.95
						c-17.98,3.04-39.41,10.57-39.41,29.19c0,4.92,4,6.27,13.8,8.37c12.76,2.74,30.22,6.48,30.22,31.95
						c0,12.21-3.71,21.34-11.01,27.14C825.8,1146.42,817.06,1147.73,810.32,1147.73z"/>
				</g>
				<path d="M1000,961.81c-17.67,0-34.79-5.05-49.53-14.61c-15.24-9.86-25.5-20.8-32.29-34.44c-0.81-1.63-0.15-3.61,1.48-4.43
					c1.62-0.82,3.61-0.15,4.43,1.48c6.24,12.53,15.76,22.64,29.97,31.84c13.67,8.86,29.54,13.55,45.93,13.55
					c16.38,0,32.26-4.69,45.92-13.55c12.17-7.86,22.12-18.71,28.91-31.47c-7.75-7.26-16.07-4.03-22.84-1.39
					c-4.18,1.63-7.49,2.91-10.21,1.05c-1.58-1.08-2.38-2.9-2.38-5.4c0-4.29,3.41-10.32,8.59-19.46c2.49-4.39,5.33-9.42,8.24-15.05
					c0.84-1.62,2.83-2.27,4.45-1.42c1.62,0.84,2.26,2.83,1.42,4.45c-2.94,5.71-5.84,10.82-8.36,15.27
					c-3.72,6.58-7.26,12.83-7.68,15.68c1.01-0.3,2.42-0.85,3.54-1.28c7.17-2.8,20.5-7.98,31.74,4.76c0.89,1.01,1.08,2.46,0.48,3.66
					c-7.32,14.72-18.49,27.21-32.29,36.14C1034.79,956.76,1017.67,961.81,1000,961.81z"/>
			</g>
			<g>
				<path d="M1000,851.74c-20.56,0-36.74-20.35-37.41-21.21c-0.7-0.9-0.7-2.16,0-3.06c0.68-0.86,16.85-21.22,37.41-21.22
					c20.55,0,36.74,20.35,37.41,21.22c0.7,0.9,0.7,2.16,0,3.06C1036.74,831.4,1020.56,851.74,1000,851.74z M967.79,829
					c4.07,4.57,17.14,17.78,32.21,17.78c15.07,0,28.14-13.21,32.21-17.78c-4.07-4.57-17.14-17.79-32.21-17.79
					C984.93,811.21,971.86,824.43,967.79,829z"/>
				<path d="M1000,851.21c-12.25,0-22.21-9.96-22.21-22.21s9.97-22.21,22.21-22.21s22.21,9.97,22.21,22.21
					S1012.25,851.21,1000,851.21z M1000,811.75c-9.51,0-17.25,7.74-17.25,17.25c0,9.51,7.74,17.25,17.25,17.25
					c9.51,0,17.25-7.74,17.25-17.25C1017.25,819.49,1009.51,811.75,1000,811.75z"/>
			</g>
			<path d="M1007.28,828.99c0,4.03-3.25,7.31-7.27,7.31s-7.31-3.29-7.31-7.31c0-3.25,2.14-6,5.09-6.9c0.16,2.67,2.38,4.76,5.13,4.76
				c1.31,0,2.51-0.49,3.41-1.36C1006.95,826.53,1007.28,827.72,1007.28,828.99z"/>
		</g>
		<path d="M997.74,921.3c-14.22,0-30.37-2.7-46.91-10.77c-1.65-0.8-2.32-2.78-1.52-4.42c0.79-1.65,2.79-2.3,4.42-1.52
			c46.01,22.41,90.04,0.05,90.48-0.17c1.6-0.85,3.61-0.22,4.45,1.41c0.85,1.62,0.21,3.61-1.41,4.45
			C1045.98,910.95,1025.58,921.3,997.74,921.3z"/>
	</g>
</g>
</svg>
