
<?xml version="1.0" encoding="utf-8"?>
<!-- Generator: Adobe Illustrator 25.0.0, SVG Export Plug-In . SVG Version: 6.00 Build 0)  -->
<svg version="1.1" id="Layer_1" xmlns="http://www.w3.org/2000/svg" xmlns:xlink="http://www.w3.org/1999/xlink" x="0px" y="0px"
	 viewBox="0 0 2000 2000" style="enable-background:new 0 0 2000 2000;" xml:space="preserve">
<style type="text/css">
	.st0{display:none;fill:#03036D;}
	.st1{display:none;fill:#F1F1F1;}
	.st2{fill:#FFFFFF;}
</style>
<rect x="0" width="2000" height="2000"/>
<g>
	<g>
		<path class="st2" d="M786.21,841.72c1.54,0,3.09,0.11,4.59,0.32c25.2,3.53,51.53,30.1,56.36,56.86
			c3.45,19.48-1.78,42.08-14.34,61.99c-5.99,9.46-14.76,16.84-24.04,24.65c-4.78,4.02-9.71,8.18-14.35,12.72
			c-42.8,41.84-56,77.38-40.36,108.66c5.17,10.35,19.7,23.76,43.61,27.52c3.91,0.61,7.99,0.92,12.11,0.92
			c19.42,0,49.34-6.91,81.58-39.82c26.48-29.4,49.8-75.86,43.29-103.05c-0.67-2.8-2.79-5.06-5.53-5.91
			c-14.48-4.5-27.19-9.1-35.97-19.75c-9.69-11.75-14.88-28.29-13.55-43.17c0.5-5.55,7.3-20.11,14.36-24.57
			c1-0.63,1.87-0.97,2.51-0.97c0.23,0,0.46,0.04,0.69,0.13c0.92,0.34,1.89,0.52,2.87,0.52c3.4,0,6.48-2.14,7.68-5.34
			c1.57-4.22-0.59-8.95-4.75-10.51c-2-0.96-6.89-8.01-9.55-14.61c-6.03-14.69,31.2-74.85,91.04-81.64c5.2-0.6,10.51-0.91,15.81-0.91
			c5.3,0,10.66,0.3,15.95,0.91c59.72,6.79,96.87,66.96,90.82,81.68c-2.64,6.55-7.53,13.6-9.48,14.54c-4.22,1.58-6.38,6.3-4.8,10.54
			c1.19,3.18,4.27,5.32,7.67,5.32c0.97,0,1.93-0.17,2.84-0.5c2.54,0,8.91,5.56,13.3,12.72c4.17,6.79,5.57,16.35,3.83,26.25
			c-4.36,24.92-19.5,40.13-49.06,49.33c-2.75,0.85-4.87,3.12-5.54,5.91c-6.51,27.2,16.83,73.69,43.17,102.93
			c32.37,33.04,62.28,39.94,81.7,39.94c4.12,0,8.2-0.31,12.11-0.92c23.91-3.76,38.44-17.17,43.61-27.52
			c15.64-31.28,2.44-66.82-40.35-108.66c-4.64-4.55-9.58-8.7-14.36-12.73c-9.28-7.81-18.04-15.19-24.03-24.64
			c-12.57-19.92-17.8-42.52-14.35-62c3.76-21.24,21.54-42.7,43.23-52.18c4.68-2.04,9.49-3.08,14.28-3.08c1.98,0,3.96,0.25,5.94,0.6
			c-51.69-62.74-129.98-102.74-217.62-102.74c-86.51,0-163.88,39.02-215.58,100.37C784.43,841.8,785.32,841.72,786.21,841.72z
			 M900.08,892.63c-0.02,0-0.03,0.01-0.05,0.01c-0.24,0-0.48-0.04-0.71-0.13C899.57,892.6,899.83,892.64,900.08,892.63z
			 M1100.41,892.64c-0.02,0-0.03-0.01-0.05-0.01c0.25,0.01,0.51-0.03,0.77-0.12C1100.89,892.6,1100.65,892.64,1100.41,892.64z
			 M1190.66,1129.22c0,0-0.01,0-0.01,0c0.02,0,0.04,0,0.06,0C1190.69,1129.22,1190.67,1129.22,1190.66,1129.22z M1171.1,1084.04
			c7.35-1.2,14.6-2.65,22.28-4.17c13.89-2.76,28.2-5.61,42.24-6.69c1.54,9.43,0.25,18.12-3.9,26.42
			c-3.58,7.17-14.97,16.06-31.5,18.66c-3.08,0.48-6.3,0.73-9.58,0.73c-16.25,0-41.53-6.02-69.65-34.68
			c-0.83-0.93-1.67-1.88-2.51-2.86c9.74,3.05,19.73,4.51,30.43,4.51C1155.94,1085.95,1163.2,1085.33,1171.1,1084.04z
			 M809.79,1129.22c-0.02,0-0.03,0-0.05,0c0.02,0,0.04,0,0.06,0C809.8,1129.22,809.8,1129.22,809.79,1129.22z M881.79,1081.66
			c-0.75,0.88-1.51,1.74-2.27,2.58c-28.18,28.71-53.46,34.75-69.72,34.75c-3.28,0-6.5-0.25-9.58-0.73
			c-16.53-2.6-27.92-11.49-31.5-18.66c-4.13-8.25-5.42-16.87-3.93-26.23c13.48,1.22,27.14,3.93,40.4,6.56l0.12,0.02
			c7.54,1.49,14.67,2.91,21.84,4.09c8.41,1.37,16.15,2.04,23.68,2.04C861.68,1086.07,871.94,1084.62,881.79,1081.66z"/>
		<path class="st2" d="M1245.49,925.58c2.05-5.64,5.67-17.71,4.64-30.36c-5.38-10.52-11.35-20.68-17.96-30.38
			c-1.66-1-3.32-1.99-5.2-2.8c-2.91-1.07-5.86-1.55-9.11-1.55c-9.36,0-23.23,4.19-34.1,15.95c-7.9,8.55-19.18,27.17-6.01,55.91
			c11.5,23.49,26.26,34.06,41.9,45.26c10.12,7.25,20.59,14.75,31.76,26.61c10.48,11.18,21.55,29.53,27.79,50.34
			c1.13-10.26,1.76-20.67,1.76-31.23c0-39.4-8.11-76.89-22.71-110.95C1255.99,918.53,1251.79,923.03,1245.49,925.58z
			 M1217.51,866.65c0.12,0,0.24-0.02,0.36-0.02c0.2,0,0.39,0.02,0.59,0.02C1218.14,866.65,1217.82,866.65,1217.51,866.65z"/>
		<path class="st2" d="M909.87,1169.21c0.33-0.21,0.65-0.45,0.93-0.69c33.85-29.15,48.04-59.41,53.97-79.65
			c1.27-4.33-1.22-8.89-5.58-10.17c-0.74-0.21-1.5-0.32-2.28-0.32c-3.61,0-6.85,2.42-7.86,5.88c-5.28,18.01-17.96,44.97-48.38,71.36
			c-0.31,0.2-0.61,0.42-0.89,0.66c-10.89,9.36-21.43,19.18-36.15,20.99c-28.54,3.51-59.98-1.96-87.08-11.05
			c-10.77-3.61-20.18-8.44-28.2-14.34c13.73,26.73,31.57,51,52.75,71.92c4.06-1.27,8.01-2.46,11.66-3.5
			c24.75-7.07,47.74-17.19,68.33-30.1C891.51,1183.69,901.19,1176.62,909.87,1169.21z M956.92,1084.52c0.19,0,0.38,0.03,0.57,0.08
			c-0.24-0.07-0.48-0.08-0.71-0.06C956.83,1084.54,956.87,1084.52,956.92,1084.52z"/>
		<path class="st2" d="M1248.76,1154.1c-7.3,4.88-15.53,9-24.86,12.13c-26.36,8.82-54.2,12.39-81.96,11.56
			c-18.43-0.55-29.6-9.61-43.46-21.51c-0.28-0.24-0.57-0.46-0.88-0.66c-30.42-26.39-43.1-53.36-48.39-71.36
			c-1.01-3.47-4.25-5.89-7.86-5.89c-0.77,0-1.53,0.11-2.31,0.33c-4.33,1.28-6.82,5.83-5.55,10.16c5.94,20.24,20.13,50.5,54,79.67
			c0.29,0.24,0.59,0.47,0.9,0.67c8.68,7.41,18.36,14.47,28.79,21.01c0.55,0.34,1.1,0.67,1.66,1c0.33,0.2,0.67,0.39,1,0.59l0.23,0.15
			c19.97,12.12,41.97,21.65,65.44,28.35c3.65,1.04,7.58,2.23,11.64,3.49C1217.75,1203.46,1235.19,1179.96,1248.76,1154.1z
			 M1040.78,1084.6c0.19-0.05,0.39-0.08,0.58-0.08c0.05,0,0.09,0.02,0.14,0.02C1041.26,1084.52,1041.02,1084.53,1040.78,1084.6z"/>
		<path class="st2" d="M966.39,967.73c0.67-0.21,1.3-0.41,1.91-0.62c0.2-0.07,0.39-0.14,0.58-0.21c0.41-0.15,0.82-0.29,1.2-0.44
			c0.2-0.08,0.4-0.15,0.59-0.23c0.36-0.14,0.7-0.27,1.03-0.41c0.17-0.07,0.34-0.14,0.5-0.21c0.36-0.15,0.7-0.3,1.03-0.44
			c0.1-0.04,0.2-0.09,0.29-0.13c0.4-0.18,0.77-0.35,1.1-0.51c0.1-0.05,0.17-0.09,0.26-0.13c0.23-0.11,0.45-0.22,0.64-0.32
			c0.1-0.05,0.18-0.09,0.27-0.14c0.15-0.08,0.29-0.15,0.41-0.22c0.08-0.04,0.14-0.08,0.21-0.11c0.1-0.05,0.18-0.1,0.24-0.13
			c0.05-0.03,0.09-0.05,0.12-0.06c0.04-0.02,0.05-0.03,0.07-0.04c0.01,0,0.04-0.02,0.04-0.02c-0.98-1.48-2.18-3.12-3.51-4.83
			c-0.31-0.4-0.62-0.79-0.95-1.2c-1.37-1.69-2.87-3.46-4.51-5.27c-0.17-0.19-0.34-0.38-0.52-0.57c-1.69-1.85-3.51-3.74-5.43-5.63
			s-3.94-3.78-6.03-5.64c-4.19-3.72-8.67-7.32-13.27-10.46c-3.97-2.72-8.02-5.1-12.02-6.96c-2.66-1.24-5.3-2.25-7.88-2.96
			c-0.01,0-0.01,0-0.02,0c-0.71-0.2-1.41-0.36-2.09-0.5c-0.21-0.04-0.42-0.08-0.63-0.11c-0.48-0.09-0.96-0.16-1.43-0.22
			c-0.22-0.03-0.45-0.05-0.67-0.07c-0.48-0.05-0.95-0.07-1.42-0.09c-0.17-0.01-0.35-0.02-0.52-0.02c-0.06,0-0.12-0.01-0.18-0.01
			c-0.43,0-0.85,0.03-1.26,0.06c-0.16,0.01-0.33,0.01-0.5,0.02c-0.62,0.05-1.23,0.13-1.82,0.24c-0.17,0.03-0.32,0.08-0.48,0.11
			c-0.42,0.09-0.84,0.18-1.25,0.3c-0.22,0.06-0.43,0.14-0.65,0.21c-0.33,0.11-0.66,0.22-0.98,0.35c-0.23,0.09-0.45,0.19-0.67,0.29
			c-0.29,0.13-0.59,0.26-0.87,0.41c-0.22,0.11-0.43,0.24-0.65,0.36c-0.27,0.15-0.53,0.31-0.79,0.48c-0.21,0.13-0.41,0.27-0.61,0.42
			c-0.25,0.17-0.49,0.36-0.72,0.54c-0.19,0.15-0.38,0.3-0.57,0.46c-0.23,0.2-0.45,0.41-0.67,0.62c-0.17,0.17-0.35,0.33-0.51,0.5
			c-0.22,0.22-0.42,0.46-0.62,0.7c-0.15,0.17-0.31,0.34-0.45,0.52c-0.21,0.27-0.41,0.55-0.61,0.83c-0.12,0.16-0.24,0.32-0.35,0.48
			c-0.3,0.44-0.57,0.9-0.83,1.37c-0.08,0.15-0.15,0.31-0.23,0.46c-0.17,0.33-0.35,0.67-0.5,1.01c-0.1,0.21-0.18,0.42-0.26,0.63
			c-0.12,0.3-0.25,0.59-0.36,0.9c-0.08,0.23-0.16,0.47-0.23,0.7c-0.1,0.29-0.19,0.59-0.27,0.89c-0.07,0.24-0.13,0.49-0.19,0.74
			c-0.07,0.3-0.14,0.6-0.2,0.9c-0.05,0.25-0.09,0.5-0.14,0.76c-0.05,0.31-0.09,0.61-0.13,0.92c-0.03,0.25-0.06,0.51-0.08,0.76
			c-0.03,0.32-0.04,0.64-0.06,0.95c-0.01,0.25-0.02,0.5-0.03,0.75c0,0.34,0.01,0.67,0.02,1.01c0.01,0.24,0.01,0.47,0.02,0.71
			c0.02,0.37,0.06,0.75,0.1,1.12c0.02,0.2,0.03,0.4,0.06,0.6c0.08,0.57,0.17,1.14,0.29,1.71c0.02,0.09,0.05,0.18,0.07,0.27
			c0.11,0.48,0.23,0.96,0.36,1.43c0.06,0.2,0.13,0.4,0.2,0.6c0.12,0.36,0.23,0.73,0.37,1.09c0.08,0.22,0.18,0.44,0.27,0.67
			c0.14,0.33,0.28,0.66,0.43,0.99c0.11,0.23,0.22,0.45,0.34,0.68c0.16,0.32,0.33,0.63,0.5,0.94c0.13,0.22,0.26,0.45,0.4,0.67
			c0.19,0.3,0.38,0.61,0.59,0.9c0.15,0.22,0.3,0.43,0.45,0.64c0.22,0.3,0.45,0.59,0.68,0.88c0.16,0.2,0.33,0.41,0.5,0.61
			c0.25,0.29,0.53,0.58,0.8,0.86c0.17,0.18,0.34,0.36,0.52,0.54c0.32,0.31,0.65,0.6,0.99,0.9c0.16,0.14,0.31,0.29,0.48,0.42
			c0.51,0.43,1.05,0.84,1.61,1.23c1.04,0.72,2.07,1.39,3.1,2.03c0.31,0.19,0.62,0.38,0.93,0.56c0.74,0.45,1.47,0.88,2.2,1.29
			c0.33,0.19,0.66,0.37,1,0.56c0.79,0.43,1.57,0.84,2.36,1.23c0.23,0.12,0.46,0.24,0.7,0.35c1.01,0.49,2.01,0.95,3.01,1.38
			c0.22,0.1,0.44,0.18,0.67,0.27c0.78,0.33,1.56,0.64,2.33,0.93c0.32,0.12,0.64,0.23,0.96,0.35c0.71,0.25,1.41,0.49,2.11,0.72
			c0.29,0.09,0.58,0.19,0.87,0.28c0.94,0.29,1.88,0.56,2.81,0.8c0.02,0.01,0.04,0.01,0.06,0.02c0.96,0.25,1.9,0.46,2.85,0.66
			c0.28,0.06,0.55,0.11,0.83,0.16c0.67,0.13,1.34,0.25,2,0.36c0.3,0.05,0.6,0.1,0.9,0.14c0.7,0.1,1.39,0.2,2.08,0.28
			c0.21,0.02,0.43,0.06,0.64,0.08c0.89,0.09,1.77,0.17,2.64,0.23c0.19,0.01,0.38,0.02,0.57,0.03c0.68,0.04,1.36,0.07,2.03,0.08
			c0.28,0.01,0.55,0.01,0.83,0.01c0.26,0,0.53,0.01,0.8,0.01c0.21,0,0.4-0.01,0.61-0.02c0.68-0.01,1.36-0.02,2.02-0.05
			c0.35-0.01,0.69-0.02,1.03-0.04c0.77-0.04,1.52-0.1,2.26-0.17c0.21-0.02,0.43-0.03,0.63-0.05c0.94-0.1,1.86-0.21,2.76-0.33
			c0.24-0.03,0.46-0.07,0.69-0.11c0.66-0.1,1.32-0.21,1.96-0.32c0.3-0.05,0.59-0.11,0.88-0.17c0.56-0.11,1.11-0.22,1.65-0.34
			c0.29-0.06,0.57-0.13,0.85-0.19c0.55-0.13,1.09-0.27,1.62-0.4c0.22-0.06,0.45-0.12,0.67-0.17c0.73-0.2,1.44-0.4,2.12-0.61
			C966.37,967.74,966.38,967.73,966.39,967.73z"/>
		<path class="st2" d="M749.03,1004.23c11.18-11.88,21.64-19.37,31.77-26.62c15.63-11.19,30.39-21.77,41.85-45.17
			c13.17-28.89,1.86-47.51-6.05-56.05c-10.84-11.71-24.68-15.88-34.01-15.88c-3.29,0-6.29,0.49-8.92,1.46
			c-3.68,1.58-6.78,3.62-9.59,5.89c-4.57,6.9-8.89,13.99-12.85,21.29c-2.88,13.67,0.76,27.76,3.16,34.82
			c-4.52-3.89-8.89-10.6-11.76-17.38c-16.22,35.58-25.33,75.09-25.33,116.74c0,12.45,0.89,24.68,2.46,36.71
			C725.57,1037,737.65,1016.38,749.03,1004.23z M782.59,866.65c0.11,0,0.23,0.02,0.34,0.02c-0.33,0-0.66-0.01-0.98,0
			C782.17,866.67,782.37,866.65,782.59,866.65z"/>
		<path class="st2" d="M1004.88,1199.04c-0.52-0.52-1.04-0.85-1.37-1.05c-0.31-0.22-0.74-0.48-1.29-0.7
			c-0.62-0.25-1.16-0.37-1.6-0.44c-0.37-0.08-0.87-0.17-1.5-0.17c-0.61,0-1.11,0.09-1.48,0.17c-0.42,0.07-0.97,0.18-1.6,0.44
			c-0.57,0.23-1.01,0.5-1.33,0.73c-0.36,0.22-0.83,0.54-1.31,1.01c-46.42,45.53-92.23,56.34-140.36,65.36
			c42.6,25.87,92.6,40.77,146.08,40.77c53.48,0,103.49-14.9,146.09-40.77C1097.09,1255.36,1051.29,1244.55,1004.88,1199.04z"/>
		<path class="st2" d="M1036.33,968.93c0.28,0.07,0.56,0.13,0.85,0.19c0.54,0.12,1.09,0.23,1.65,0.34c0.29,0.06,0.58,0.12,0.88,0.17
			c0.64,0.12,1.29,0.22,1.96,0.32c0.23,0.04,0.46,0.08,0.69,0.11c0.9,0.13,1.82,0.24,2.76,0.33c0.21,0.02,0.42,0.03,0.63,0.05
			c0.74,0.07,1.49,0.12,2.26,0.17c0.34,0.02,0.69,0.03,1.03,0.04c0.67,0.03,1.34,0.04,2.02,0.05c0.21,0,0.4,0.02,0.61,0.02
			c0.26,0,0.53-0.01,0.8-0.01c0.28,0,0.55-0.01,0.83-0.01c0.67-0.02,1.34-0.05,2.03-0.08c0.19-0.01,0.38-0.02,0.57-0.03
			c0.87-0.06,1.75-0.13,2.64-0.23c0.21-0.02,0.43-0.05,0.65-0.08c0.69-0.08,1.38-0.17,2.08-0.28c0.3-0.04,0.6-0.09,0.9-0.14
			c0.66-0.11,1.33-0.23,2-0.36c0.28-0.05,0.55-0.1,0.83-0.16c0.94-0.2,1.89-0.41,2.84-0.66c0.02-0.01,0.05-0.01,0.07-0.02
			c0.93-0.24,1.87-0.51,2.81-0.8c0.29-0.09,0.58-0.19,0.87-0.28c0.7-0.22,1.4-0.46,2.11-0.72c0.32-0.11,0.64-0.23,0.96-0.35
			c0.77-0.29,1.55-0.6,2.33-0.92c0.22-0.09,0.45-0.18,0.67-0.28c1-0.43,2-0.89,3.01-1.38c0.23-0.11,0.47-0.24,0.7-0.35
			c0.78-0.39,1.56-0.8,2.35-1.22c0.33-0.18,0.67-0.37,1-0.56c0.73-0.41,1.46-0.84,2.19-1.29c0.31-0.19,0.62-0.37,0.94-0.57
			c1.03-0.65,2.06-1.32,3.09-2.03c0.56-0.39,1.1-0.81,1.61-1.23c0.17-0.14,0.32-0.29,0.49-0.43c0.33-0.29,0.67-0.59,0.98-0.89
			c0.18-0.18,0.35-0.36,0.53-0.55c0.27-0.28,0.54-0.56,0.79-0.86c0.17-0.2,0.34-0.41,0.5-0.61c0.23-0.29,0.46-0.57,0.68-0.87
			c0.16-0.21,0.31-0.43,0.46-0.65c0.2-0.3,0.4-0.59,0.58-0.9c0.14-0.22,0.27-0.45,0.4-0.68c0.17-0.31,0.34-0.62,0.5-0.93
			c0.12-0.23,0.23-0.46,0.34-0.69c0.15-0.33,0.29-0.65,0.43-0.98c0.09-0.22,0.19-0.45,0.28-0.67c0.13-0.36,0.25-0.72,0.37-1.08
			c0.07-0.2,0.14-0.4,0.2-0.61c0.13-0.46,0.25-0.93,0.35-1.4c0.02-0.1,0.06-0.21,0.08-0.31c0.12-0.57,0.21-1.14,0.29-1.71
			c0.03-0.2,0.04-0.4,0.06-0.6c0.04-0.38,0.08-0.75,0.1-1.13c0.01-0.24,0.02-0.48,0.02-0.71c0.01-0.34,0.02-0.67,0.02-1.01
			c0-0.25-0.02-0.5-0.03-0.75c-0.02-0.32-0.03-0.64-0.06-0.96c-0.02-0.25-0.05-0.5-0.08-0.75c-0.04-0.31-0.08-0.62-0.13-0.93
			c-0.04-0.25-0.08-0.5-0.13-0.74c-0.06-0.31-0.13-0.61-0.2-0.92c-0.06-0.24-0.12-0.48-0.18-0.72c-0.08-0.3-0.18-0.61-0.28-0.91
			c-0.07-0.23-0.14-0.46-0.23-0.68c-0.11-0.31-0.24-0.62-0.37-0.93c-0.08-0.2-0.16-0.41-0.25-0.61c-0.16-0.36-0.35-0.72-0.53-1.07
			c-0.07-0.13-0.13-0.27-0.2-0.4c-0.26-0.47-0.54-0.93-0.84-1.38c-0.1-0.15-0.21-0.29-0.31-0.43c-0.21-0.3-0.42-0.59-0.65-0.88
			c-0.14-0.17-0.28-0.33-0.43-0.49c-0.21-0.25-0.42-0.49-0.65-0.72c-0.16-0.17-0.33-0.32-0.49-0.48c-0.23-0.22-0.45-0.43-0.69-0.64
			c-0.18-0.15-0.36-0.3-0.55-0.45c-0.24-0.19-0.49-0.38-0.75-0.56c-0.19-0.14-0.39-0.27-0.59-0.4c-0.26-0.17-0.54-0.33-0.81-0.49
			c-0.21-0.12-0.42-0.24-0.63-0.35c-0.29-0.15-0.59-0.29-0.89-0.42c-0.21-0.1-0.43-0.19-0.65-0.28c-0.33-0.13-0.67-0.24-1.01-0.35
			c-0.21-0.07-0.41-0.14-0.62-0.2c-0.42-0.12-0.85-0.22-1.28-0.31c-0.15-0.03-0.3-0.07-0.45-0.1c-0.59-0.11-1.2-0.19-1.82-0.24
			c-0.16-0.01-0.33-0.01-0.49-0.02c-0.42-0.03-0.84-0.06-1.27-0.06c-0.06,0-0.12,0.01-0.18,0.01c-0.17,0-0.35,0.01-0.52,0.02
			c-0.47,0.02-0.94,0.04-1.42,0.09c-0.22,0.02-0.45,0.05-0.67,0.07c-0.47,0.06-0.95,0.13-1.43,0.22c-0.21,0.04-0.42,0.07-0.64,0.12
			c-0.69,0.14-1.38,0.3-2.09,0.5c-0.01,0-0.01,0-0.02,0c-1.93,0.54-3.9,1.24-5.89,2.08c-1.99,0.84-3.99,1.82-6,2.91
			c-4.02,2.19-8.05,4.84-11.95,7.75c-2.61,1.94-5.16,4-7.62,6.12c-9.84,8.48-18.22,17.93-22.66,24.66c0,0,0.02,0.01,0.02,0.01
			c0.01,0.01,0.04,0.02,0.09,0.05c0.03,0.02,0.06,0.03,0.1,0.06c0.07,0.04,0.15,0.08,0.26,0.14c0.06,0.03,0.12,0.07,0.2,0.11
			c0.12,0.07,0.27,0.14,0.42,0.22c0.09,0.04,0.16,0.08,0.26,0.13c0.2,0.1,0.42,0.21,0.66,0.33c0.09,0.04,0.16,0.08,0.25,0.12
			c0.33,0.16,0.7,0.33,1.11,0.51c0.09,0.04,0.19,0.08,0.28,0.12c0.33,0.14,0.67,0.29,1.03,0.44c0.16,0.07,0.33,0.14,0.5,0.2
			c0.33,0.14,0.68,0.27,1.04,0.41c0.19,0.08,0.39,0.15,0.59,0.22c0.39,0.15,0.79,0.29,1.21,0.44c0.19,0.07,0.38,0.14,0.57,0.2
			c0.61,0.21,1.25,0.42,1.92,0.63c0.01,0,0.02,0.01,0.03,0.01c0.68,0.21,1.39,0.41,2.12,0.61c0.22,0.06,0.45,0.12,0.67,0.17
			C1035.23,968.66,1035.77,968.8,1036.33,968.93z"/>
	</g>
	<path class="st2" d="M999.13,1381.97c-197.76,0-358.65-160.88-358.65-358.64h18.54c0,187.54,152.57,340.1,340.11,340.1
		s340.11-152.57,340.11-340.1h18.54C1357.77,1221.09,1196.88,1381.97,999.13,1381.97z"/>
	<g>
		<path class="st2" d="M680.17,878.8c14,4.45,18.68,18.01,12.01,39l-12.9,40.59l-81.64-25.93l12.15-38.26
			c6.22-19.59,17.84-27.46,30.79-23.35c8.39,2.67,13.25,8.83,14.63,16.2C660.79,879.19,669.56,875.43,680.17,878.8z M614.36,921.06
			l22.51,7.16l6.81-21.46c3.34-10.49,1.5-17.63-5.97-20c-7.58-2.41-13.2,2.36-16.54,12.85L614.36,921.06z M673.8,893.6
			c-8.16-2.59-13.75,2.44-17.38,13.87l-7.78,24.49l23.56,7.48l7.78-24.49C683.62,903.52,681.97,896.19,673.8,893.6z"/>
		<path class="st2" d="M794.68,770.45l-29.92-6.43c-0.72,0.84-1.53,1.59-2.34,2.35l-14.15,13.18l17.02,18.27l-11.65,10.85
			l-58.4-62.7l25.8-24.03c16.48-15.35,34.53-16.44,47.46-2.56c8.85,9.5,10.52,20.99,5.1,32.23l33.61,7.17L794.68,770.45z
			 M729.69,732.29l-13.62,12.68l23.28,24.99l13.62-12.68c10.21-9.51,11.16-19.09,3.81-26.97S739.9,722.77,729.69,732.29z"/>
		<path class="st2" d="M947.89,687.65l3.34,12.92l-62.22,16.09l-21.45-82.96l60.56-15.66l3.34,12.92l-45.15,11.68l5.58,21.57
			l40.05-10.35l3.28,12.68l-40.05,10.35l5.91,22.88L947.89,687.65z"/>
		<path class="st2" d="M1103.45,694.5l-41.58-10.4l-13,17.2l-15.92-3.98l58.21-73.8l15.21,3.8l16.75,92.54l-16.15-4.04
			L1103.45,694.5z M1101.37,681.11l-6.6-40.27l-24.65,32.46L1101.37,681.11z"/>
		<path class="st2" d="M1221.35,728.33c17.48-18.68,44.41-18.8,63.62-0.81c10.19,9.53,15.52,21.4,14.97,33.62l-14.11,0.04
			c0.04-9.18-3.33-16.86-9.86-22.97c-12.96-12.13-30.87-11.79-42.92,1.08c-12.04,12.87-11.19,30.77,1.77,42.9
			c6.52,6.1,14.41,8.96,23.65,8.22l0.81,14.17c-12.16,1.36-24.35-3.17-34.63-12.79C1205.54,773.89,1203.87,747.01,1221.35,728.33z"
			/>
		<path class="st2" d="M1402.35,938.99l-81.9,25.21l-4.68-15.21l35.1-10.81l-13.04-42.35l-35.1,10.8l-4.68-15.21l81.91-25.21
			l4.68,15.21l-33.81,10.41l13.03,42.36l33.82-10.41L1402.35,938.99z"/>
	</g>
</g>
</svg>
